Coordinates
version=1
nRows=14
nColumns=40
inDegrees=yes

Units are S.I. units (second, meters, Newtons, ...)
If the header above contains a line with 'inDegrees', this indicates whether rotational values are in degrees (yes) or radians (no).

endheader
time	pelvis_tilt	pelvis_list	pelvis_rotation	pelvis_tx	pelvis_ty	pelvis_tz	hip_flexion_r	hip_adduction_r	hip_rotation_r	knee_angle_r	knee_angle_r_beta	ankle_angle_r	subtalar_angle_r	mtp_angle_r	hip_flexion_l	hip_adduction_l	hip_rotation_l	knee_angle_l	knee_angle_l_beta	ankle_angle_l	subtalar_angle_l	mtp_angle_l	lumbar_extension	lumbar_bending	lumbar_rotation	arm_flex_r	arm_add_r	arm_rot_r	elbow_flex_r	pro_sup_r	wrist_flex_r	wrist_dev_r	arm_flex_l	arm_add_l	arm_rot_l	elbow_flex_l	pro_sup_l	wrist_flex_l	wrist_dev_l
      3.08000000	    -10.14110489	      1.17996256	     -6.36284851	      0.16914552	      0.76852535	     -1.20056878	     52.77586768	    -30.56164879	    -12.19564753	     65.42060376	      1.14180493	     13.00556982	     -1.55915213	      0.00000000	     45.36177785	    -39.40120340	    -24.95063610	     65.22725794	      1.13843041	     13.96180417	      5.79699213	      0.00000000	      0.00000000	      0.00000000	      0.00000000	     44.99992390	    -14.99999999	     44.99992390	     75.00017585	     45.00000026	      0.00000000	      0.00000000	     44.99992390	    -14.99999999	     44.99992390	     75.00017585	     45.00000026	      0.00000000	      0.00000000
      3.08500000	     -9.91589706	      1.26275863	     -6.39259581	      0.17035741	      0.77406303	     -1.20056052	     51.65021405	    -30.42016712	    -12.63138663	     64.15397352	      1.11969807	     12.59963838	     -1.54951666	      0.00000000	     44.03255710	    -38.96699898	    -25.84804353	     63.92554860	      1.11571130	     13.51078796	      5.80857007	      0.00000000	      0.00000000	      0.00000000	      0.00000000	     44.99992390	    -14.99999999	     44.99992390	     75.00017585	     45.00000026	      0.00000000	      0.00000000	     44.99992390	    -14.99999999	     44.99992390	     75.00017585	     45.00000026	      0.00000000	      0.00000000
      3.09000000	    -10.31050507	      1.35017630	     -6.45108367	      0.17088757	      0.77778491	     -1.20042352	     51.40763517	    -30.13846589	    -12.87485756	     63.07362671	      1.10084246	     12.09670263	     -1.64170764	      0.00000000	     43.71117348	    -38.57815763	    -26.29762763	     62.86922524	      1.09727498	     13.02749292	      5.67348714	      0.00000000	      0.00000000	      0.00000000	      0.00000000	     44.99992390	    -14.99999999	     44.99992390	     75.00017585	     45.00000026	      0.00000000	      0.00000000	     44.99992390	    -14.99999999	     44.99992390	     75.00017585	     45.00000026	      0.00000000	      0.00000000
      3.09500000	     -9.49988428	      1.33090166	     -6.40775852	      0.17282495	      0.78482957	     -1.20070874	     49.35582233	    -30.08378355	    -13.60750011	     61.57793170	      1.07473765	     11.70645107	     -1.57081991	      0.00000000	     41.55505685	    -38.12431829	    -27.44564328	     61.33755820	      1.07054235	     12.62903318	      5.88846164	      0.00000000	      0.00000000	      0.00000000	      0.00000000	     44.99992391	    -14.99999999	     44.99992391	     75.00017585	     45.00000026	      0.00000000	      0.00000000	     44.99992391	    -14.99999999	     44.99992391	     75.00017585	     45.00000026	      0.00000000	      0.00000000
      3.10000000	    -10.17241198	      1.42395258	     -6.41627088	      0.17377439	      0.78717038	     -1.20044476	     49.51171147	    -29.96300088	    -14.03128408	     60.83880312	      1.06183743	     11.60833113	     -1.53395652	      0.00000000	     41.66973166	    -37.90925970	    -27.93771877	     60.55445514	      1.05687462	     12.40223677	      5.97665727	      0.00000000	      0.00000000	      0.00000000	      0.00000000	     44.99992391	    -14.99999999	     44.99992391	     75.00017585	     45.00000026	      0.00000000	      0.00000000	     44.99992391	    -14.99999999	     44.99992391	     75.00017585	     45.00000026	      0.00000000	      0.00000000
      3.10500000	     -9.08265657	      1.34886007	     -6.33631557	      0.17541700	      0.79523905	     -1.20107162	     46.99764465	    -29.77385622	    -14.69231336	     58.97925762	      1.02938224	     10.80966109	     -1.53974586	      0.00000000	     39.21607312	    -37.24014118	    -28.86574696	     58.74980441	      1.02537752	     11.73183710	      6.02514166	      0.00000000	      0.00000000	      0.00000000	      0.00000000	     44.99992391	    -14.99999999	     44.99992391	     75.00017585	     45.00000026	      0.00000000	      0.00000000	     44.99992391	    -14.99999999	     44.99992391	     75.00017585	     45.00000026	      0.00000000	      0.00000000
      3.11000000	     -9.73865049	      1.42554013	     -6.32999425	      0.17640931	      0.79736030	     -1.20081794	     47.16162204	    -29.66926300	    -15.13674416	     58.30565775	      1.01762570	     10.74821070	     -1.50993940	      0.00000000	     39.35292426	    -37.05540004	    -29.36303246	     58.01160031	      1.01249343	     11.54771019	      6.10744969	      0.00000000	      0.00000000	      0.00000000	      0.00000000	     44.99992391	    -14.99999999	     44.99992391	     75.00017585	     45.00000026	      0.00000000	      0.00000000	     44.99992391	    -14.99999999	     44.99992391	     75.00017585	     45.00000026	      0.00000000	      0.00000000
      3.11500000	     -8.95376121	      1.37143731	     -6.26054469	      0.17763106	      0.80450987	     -1.20136785	     45.07675820	    -29.35939290	    -15.62880690	     56.45097666	      0.98525541	      9.81750817	     -1.77118127	      0.00000000	     37.40438102	    -36.33267480	    -29.97717679	     56.24449947	      0.98165170	     10.75118784	      6.00115209	      0.00000000	      0.00000000	      0.00000000	      0.00000000	     44.99992391	    -14.99999999	     44.99992391	     75.00017585	     45.00000026	      0.00000000	      0.00000000	     44.99992391	    -14.99999999	     44.99992391	     75.00017585	     45.00000026	      0.00000000	      0.00000000
      3.12000000	     -9.40830268	      1.43153814	     -6.24750523	      0.17852509	      0.80738903	     -1.20133910	     44.90280188	    -29.17126652	    -15.96961112	     55.47926707	      0.96829588	      9.47482985	     -1.53154562	      0.00000000	     37.26940247	    -36.01587450	    -30.39681191	     55.30622290	      0.96527569	     10.38904082	      6.18493044	      0.00000000	      0.00000000	      0.00000000	      0.00000000	     44.99992391	    -14.99999999	     44.99992391	     75.00017585	     45.00000026	      0.00000000	      0.00000000	     44.99992391	    -14.99999999	     44.99992391	     75.00017585	     45.00000026	      0.00000000	      0.00000000
      3.12500000	     -8.24798885	      0.09604683	     -5.19633024	      0.18155243	      0.81554673	     -1.20434632	     40.82048787	    -28.69224910	    -18.91570084	     53.22114885	      0.92888428	      8.92997423	     -1.23892301	      0.00000000	     35.93412653	    -35.98715154	    -29.45056908	     53.81815924	      0.93930408	      9.95056303	      6.42222035	      0.00000000	      0.00000000	      0.00000000	      0.00000000	     44.99992392	    -14.99999999	     44.99992392	     75.00017585	     45.00000026	      0.00000000	      0.00000000	     44.99992392	    -14.99999999	     44.99992392	     75.00017585	     45.00000026	      0.00000000	      0.00000000
      3.13000000	     -8.15731848	      0.12523196	     -5.17527779	      0.18268960	      0.81981491	     -1.20444719	     39.90922458	    -28.44867685	    -19.30552423	     51.97926119	      0.90720925	      8.40155508	     -1.32948669	      0.00000000	     34.99753033	    -35.56310072	    -30.05851949	     52.58434462	      0.91776995	      9.49329966	      6.48136258	      0.00000000	      0.00000000	      0.00000000	      0.00000000	     44.99992392	    -14.99999999	     44.99992392	     75.00017585	     45.00000026	      0.00000000	      0.00000000	     44.99992392	    -14.99999999	     44.99992392	     75.00017585	     45.00000026	      0.00000000	      0.00000000
      3.13500000	     -7.95342662	      0.11547508	     -5.07621524	      0.18408004	      0.82422779	     -1.20473274	     38.75992361	    -28.25352636	    -19.84870859	     50.68582273	      0.88463449	      7.95098869	     -1.23475849	      0.00000000	     33.96690786	    -35.13804124	    -30.64691809	     51.33879166	      0.89603095	      9.05343676	      6.68472675	      0.00000000	      0.00000000	      0.00000000	      0.00000000	     44.99992392	    -14.99999999	     44.99992392	     75.00017585	     45.00000026	      0.00000000	      0.00000000	     44.99992392	    -14.99999999	     44.99992392	     75.00017585	     45.00000026	      0.00000000	      0.00000000
      3.14000000	     -8.52843356	      0.21592105	     -5.08968423	      0.18488955	      0.82632588	     -1.20449316	     38.86062877	    -28.06662037	    -20.09700677	     49.85202947	      0.87008205	      7.67906624	     -1.12784437	      0.00000000	     34.01087356	    -34.82242956	    -31.02638435	     50.45768153	      0.88065268	      8.69905660	      6.83744637	      0.00000000	      0.00000000	      0.00000000	      0.00000000	     44.99992392	    -14.99999999	     44.99992392	     75.00017585	     45.00000026	      0.00000000	      0.00000000	     44.99992392	    -14.99999999	     44.99992392	     75.00017585	     45.00000026	      0.00000000	      0.00000000
      3.14500000	     -7.55490095	      0.01187307	     -4.88219335	      0.18684316	      0.83267671	     -1.20527452	     36.47969378	    -27.76311858	    -20.97729751	     48.12100920	      0.83987005	      7.03906243	     -1.06744946	      0.00000000	     31.99739945	    -34.38036747	    -31.70220322	     48.89117673	      0.85331201	      8.19647645	      7.16151869	      0.00000000	      0.00000000	      0.00000000	      0.00000000	     44.99992392	    -14.99999999	     44.99992392	     75.00017585	     45.00000026	      0.00000000	      0.00000000	     44.99992392	    -14.99999999	     44.99992392	     75.00017585	     45.00000026	      0.00000000	      0.00000000
